<?xml version="1.0" encoding="utf-8"?>
<!-- Generator: Adobe Illustrator 26.0.2, SVG Export Plug-In . SVG Version: 6.00 Build 0)  -->
<svg version="1.1" id="Layer_1" xmlns="http://www.w3.org/2000/svg" xmlns:xlink="http://www.w3.org/1999/xlink" x="0px" y="0px"
	 viewBox="0 0 82 46" style="enable-background:new 0 0 82 46;" xml:space="preserve">
<style type="text/css">
	.st0{fill-rule:evenodd;clip-rule:evenodd;fill:#BCDFB8;}
	.st1{fill-rule:evenodd;clip-rule:evenodd;fill:#1A1919;}
	.st2{fill-rule:evenodd;clip-rule:evenodd;fill:#F36D21;stroke:#010101;stroke-width:0.25;stroke-miterlimit:10;}
	.st3{fill-rule:evenodd;clip-rule:evenodd;fill:#FFFFFF;}
</style>
<rect x="31.3" y="2.7" class="st0" width="38.9" height="18.6"/>
<g id="svgg">
	<path id="path1" class="st1" d="M55.3,23.4c-8.1,2.3-5.2,14.3,3.3,12C65.5,33,63.1,22,55.3,23.4 M13.8,23.5
		c-8.6,2.1-5.4,14.3,3.1,11.9C23.6,33,21.3,22.5,13.8,23.5 M16,25.7c3.7,1.3,2.7,7.6-1.3,7.5C9.1,33,10.2,24,16,25.7 M57.5,25.5
		c4.5,1,3.7,7.5-0.7,7.7C51.9,33.1,52.2,24.7,57.5,25.5 M-0.4,39.4c0.3,1.4,2.1,1,3.1,1c0,1.4,0,4.1,0,5.5c0.6,0,1.8,0,2.4,0
		c0-1.4,0-4.1,0-5.5c1,0,3,0.1,3-0.7c0.1,0,0.1,5.2,0.1,6.2c0.6,0,1.8,0,2.4,0c0-1,0-3,0-3.9c1.8,2.1,2.8,4.5,6,3.9
		c0.3-0.6-1.2-1.4-1.6-2.2c-1.5-2,2,2,1.2-4.6c-4.1,0-12.5,0-16.6,0V39.4 M16.8,42.5v3.4c1.9,0,5.7,0,7.6,0c0-1.7,0-5.1,0-6.8
		c-0.5,0-1.6,0-2.1,0c0,1.4,0,4.2,0,5.6c-0.8,0-2.4,0-3.2,0c0-1.4,0-4.2,0-5.6c-0.6,0-1.7,0-2.3,0V42.5 M25,42.5v3.4
		c1.8-0.4,7,1,7.6-1c0.6-0.4-4.5-0.1-5.3-0.2c0-1.1,0-3.2,0-4.3c1.5-0.3,5.2,0.9,5.3-1.3c-1.9,0-5.7,0-7.6,0V42.5 M32.8,42.5v3.4
		c0.6,0,1.8,0,2.4,0c0-0.7,0-2,0-2.7c1.1-0.1,2,1.7,2.7,2.3c-0.4,0.5,4.5,0.9,2.4-0.4c-0.8-0.9-1.4-1.8-2.2-2.6
		c0.5-1.1,4.6-3.9,1.4-3.4c-1.3,0-1.6,0.1-1.6,0.4c-0.7,0.6-1.6,2.4-2.7,2.3c0-0.7,0-2,0-2.7c-0.6,0-1.8,0-2.4,0V42.5 M41,42.5v3.4
		c1.9,0,5.7,0,7.6,0c0-1.1,0-3.2,0-4.3c-0.1,0-0.4,0-0.5,0c0-0.6,0-1.8-0.1-2.4c-1.8,0-5.3,0-7.1-0.1V42.5 M48.9,39.2
		c-0.1,0.4,0,5.4,0,6.6c1.9,0,5.8,0,7.7,0.1c0-1.7,0-5.1,0-6.8c-0.6,0-1.7,0-2.3,0c0,1.4,0,4.2,0,5.6c-0.8,0-2.3,0-3.1,0
		c0-1.4,0-4.2,0-5.6C50.8,39.1,48.9,39,48.9,39.2 M57.2,42.5v3.4c1,0,7.7,0.1,7.1-0.2c2.4-1.8-3.3-0.8-4.7-1c0-1.1,0-3.2,0-4.3
		c1.1,0,3.4,0,4.5,0c3.5-2.2-5.2-1-6.9-1.3V42.5 M65,42.5v3.4c0.6,0,1.8,0,2.4,0c0-0.7,0-2,0-2.7c1.1-0.2,1.8,1.5,2.5,2.1
		c0,0.4,0.5,0.6,1.7,0.6c3.2,0.3-0.9-2.2-1.2-3.2c-0.3-0.2-0.2-0.4,0.8-1.4c2.2-2.3,2.2-2.2,0.4-2.2c-2.8-0.3-2.1,2.6-4.3,2.7
		c0-0.7,0-2,0-2.7c-0.6,0-1.8,0-2.4,0V42.5 M73.8,39.6C73,40,73.3,42,73.3,43.2c1.4,0,4.1,0,5.5,0.1c1.4,2.8-7.1,0.4-5.2,2.3
		c1.4,1,5,0.1,6.7,0.4c1.3-0.8,0.8-2.7,0.8-4.1c-1.4,0-4.1,0-5.5-0.1c-0.4-1.8,1.7-1.4,2.7-1.4c2.7,0,2.3,0,2.8-0.8
		c0.4-0.5,0.4-0.5-3.3-0.5C77.3,39.2,73.9,38.8,73.8,39.6 M13.9,41v0.6c-0.8,0-2.5,0-3.3,0c0-0.3,0-0.9,0-1.2c0.8,0,2.5,0,3.3,0V41
		 M46.3,41v0.6c-0.7,0-2.2,0-2.9,0c0-0.3,0-0.9,0-1.2c0.7,0,2.2,0,2.9,0V41 M46.3,43.9v0.9c-0.7,0-2.2,0-2.9,0c0-0.4,0-1.3,0-1.7
		c0.7,0,2.2,0,2.9,0V43.9"/>
	<path id="path2" class="st2" d="M47.3,0.3c0,0.1-3.5,0.1-10.1,0.1c-7.9,0-10.1,0-10.2,0.1c-0.1,0.1-0.2,22.4,0,22.4
		c0.4,0.3-1.4,0.2-1.7,0.2c0-4.2,0-12.5,0-16.7c-1.5-1.8-5.2-0.6-6.7-0.5c-2.7,0.8-9.2-1-10.1,2.6c-0.7,2-1.7,3.7-2.2,5.8
		c-1.5,3.5-1-0.3-1.1,8.5C5.6,24,3.7,31.3,7,30.1c2.7,0.5,1.1-3.9,3.9-5.4c4.5-3.6,9.9,0,10.4,5.1c0,1,14.2,0,14.5,0.3
		c0,0,14.2,0,14.2,0c0.6-0.6,0.4-0.4,0.8-2.5c0-1.7,3.6-3.3,1.5-4.4c5.2-0.2,6,0.2,13.3-0.1c6,0,7-0.1,7.1-0.2
		c0.2-0.2,0.2-22.2,0-22.4C75.2,0.3,47,0.5,48.4,0.3C48.3,0.2,47.3,0.2,47.3,0.3 M63.4,3.7c1.2,7.1,5.6,1.2,4.9,8.4
		c0.8,6.9-3.8,1.6-4.7,7.5c0.3,1.5-27.2,0.2-27.6,0.4c-0.5-2.8-2.4-4.2-4.7-4.5c-0.8-13,3.2-3.1,5.4-11.3C36.2,2.6,63.1,4,63.4,3.7
		 M48.7,5.7c-11.9,3.1,0.3,19.8,6.8,8.9C58,10.3,53.4,4.6,48.7,5.7 M50.1,6.8c1,0.7,4.5,3.5,1.1,3.2C51,9,50.1,8.4,50.3,10.3
		c0.1,0.5-0.2,1.4,0.6,1.3c2.7,0.2,2.6,4.4-0.3,4.6c-0.5,0.2-0.7,1.7-1.3,0.5c-0.1-0.5-0.1-0.5-0.6-0.6c-2.9-0.3-1.9-4.2-0.2-1.8
		c0.3,1,0.9,1.4,0.8-0.4c0-1.3,0-1.3-0.8-1.5C44.9,10.8,47.6,6.9,50.1,6.8 M48.7,9.4c-0.4,0.5-0.2,1.6,0.3,1.6
		C49.3,11.2,49.3,8.2,48.7,9.4 M37.3,9.6c-4.2,2.4,1.7,7,3.4,3.2C41.7,10.9,39.3,8.4,37.3,9.6 M58.9,9.8c-2.1,1.3-1.2,4.6,1.3,4.6
		C64.4,14.2,62.5,7.8,58.9,9.8 M17.8,13c-0.1,4.2,0.4,2.8-2.2,3.2c-2.2,0.1-4.1,0.7-6.2,0.7c-0.1,0.2-1,0.1-0.4-0.2
		c0.4-0.2,0-1.2,0.5-1.4c0.4-0.2,0.2-1,0.4-1.2c0.1-0.4,0.5-0.5,0.5-1.1c0.3-3.8,4.2-2.6,7.4-2.8V13 M50.5,13.1
		c-0.2,0.2-0.1,1.8,0.1,1.8C51.6,14.8,51.4,12.7,50.5,13.1 M61.2,23.9c-0.5,1.3,1.9,2.3,1.7,3.5c0,0.8,0.5,0.7,0.5,1.5
		c-1.1,1.2,5.4,0.7,5.3,0.5c0.2-0.3,0.3,0.3,0.4-0.1c0.2-0.3,0.6-0.1,1.1-0.3c0.7,0.1,0.3-0.7,1-0.4c1.3-0.3,1.4,0.2,1.4-2.7
		C74.4,21.7,62.6,24.3,61.2,23.9"/>
</g>
<path class="st3" d="M60.6,29.4c0.1,5.3-8,5.3-7.9,0C52.6,24.1,60.7,24.1,60.6,29.4z"/>
<path class="st3" d="M18.7,29.4c0.1,5.3-8,5.3-7.9,0C10.7,24.1,18.8,24.1,18.7,29.4z"/>
</svg>
